<svg xmlns="http://www.w3.org/2000/svg" viewBox="0 0 1200 1190" width="1200" height="1190" font-family="Arial, sans-serif">
<style>
.ent{fill:white;font-weight:bold;font-size:16px;text-anchor:middle;letter-spacing:1px}
.ent2{fill:#1f3d35;font-weight:bold;font-size:15px}
.at{fill:#2b2b2b;font-size:14px}
.pk{fill:#2b2b2b;font-size:14px;font-weight:bold;text-decoration:underline}
.tag{fill:#888;font-size:11px;font-weight:normal}
.rel{fill:#5a4500;font-size:14px;font-weight:bold;text-anchor:middle}
.ex{fill:#5a4500;font-size:12px;font-style:italic;text-anchor:middle}
.card{fill:#b5475b;font-size:16px;font-weight:bold}
.ln{stroke:#555;stroke-width:2}
</style>
<rect width="1200" height="1190" fill="white"/>
<text x="1170" y="40" text-anchor="end" font-size="22" fill="#c9a227" font-weight="bold" letter-spacing="6">AUREA</text>
<text x="1170" y="62" text-anchor="end" font-size="13" fill="#666">Diagrama Entitat-Relació</text>
<line x1="600.0" y1="162" x2="600.0" y2="300" class="ln"/>
<line x1="300" y1="360" x2="470" y2="360" class="ln"/>
<line x1="730" y1="360" x2="900" y2="360" class="ln"/>
<line x1="600.0" y1="498" x2="600.0" y2="660" class="ln"/>
<line x1="300" y1="720" x2="470" y2="720" class="ln"/>
<line x1="170.0" y1="792" x2="170.0" y2="940" class="ln"/>
<polygon points="600.0,204.0 655.0,231.0 600.0,258.0 545.0,231.0" fill="#fff8e1" stroke="#8a6d10" stroke-width="2"/>
<text x="600.0" y="236.0" class="rel">pertany</text>
<text x="612.0" y="180" class="card">1</text>
<text x="612.0" y="292" class="card">N</text>
<polygon points="385.0,333.0 440.0,360 385.0,387.0 330.0,360" fill="#fff8e1" stroke="#8a6d10" stroke-width="2"/>
<text x="385.0" y="365" class="rel">prové</text>
<text x="310" y="352" class="card">1</text>
<text x="450" y="352" class="card">N</text>
<polygon points="815.0,333.0 870.0,360 815.0,387.0 760.0,360" fill="#fff8e1" stroke="#8a6d10" stroke-width="2"/>
<text x="815.0" y="365" class="rel">fet de</text>
<text x="740" y="352" class="card">N</text>
<text x="880" y="352" class="card">M</text>
<polygon points="600.0,552.0 655.0,579.0 600.0,606.0 545.0,579.0" fill="#fff8e1" stroke="#8a6d10" stroke-width="2"/>
<text x="600.0" y="584.0" class="rel">té</text>
<text x="612.0" y="516" class="card">1</text>
<text x="612.0" y="652" class="card">N</text>
<polygon points="385.0,693.0 440.0,720 385.0,747.0 330.0,720" fill="#fff8e1" stroke="#8a6d10" stroke-width="2"/>
<text x="385.0" y="725" class="rel">conté</text>
<text x="385.0" y="765.0" class="ex">quantitat, preu_unitari</text>
<text x="310" y="712" class="card">N</text>
<text x="450" y="712" class="card">M</text>
<polygon points="170.0,839.0 225.0,866.0 170.0,893.0 115.0,866.0" fill="#fff8e1" stroke="#8a6d10" stroke-width="2"/>
<text x="170.0" y="871.0" class="rel">fa</text>
<text x="182.0" y="810" class="card">N</text>
<text x="182.0" y="932" class="card">1</text>
<rect x="470" y="30" width="260" height="132" rx="6" fill="white" stroke="#1f3d35" stroke-width="2"/>
<rect x="470" y="30" width="260" height="36" rx="6" fill="#1f3d35"/>
<text x="600.0" y="54" class="ent">CATEGORIA</text>
<text x="484" y="86" class="pk">id<tspan class="tag"> (PK)</tspan></text>
<text x="484" y="108" class="at">nom<tspan class="tag"></tspan></text>
<text x="484" y="130" class="at">descripcio<tspan class="tag"></tspan></text>
<text x="484" y="152" class="at">imatge<tspan class="tag"></tspan></text>
<rect x="40" y="300" width="260" height="132" rx="6" fill="white" stroke="#1f3d35" stroke-width="2"/>
<rect x="40" y="300" width="260" height="36" rx="6" fill="#1f3d35"/>
<text x="170.0" y="324" class="ent">ORIGEN</text>
<text x="54" y="356" class="pk">id<tspan class="tag"> (PK)</tspan></text>
<text x="54" y="378" class="at">nom<tspan class="tag"></tspan></text>
<text x="54" y="400" class="at">pais<tspan class="tag"></tspan></text>
<text x="54" y="422" class="at">certificacio<tspan class="tag"></tspan></text>
<rect x="470" y="300" width="260" height="198" rx="6" fill="white" stroke="#1f3d35" stroke-width="2"/>
<rect x="470" y="300" width="260" height="36" rx="6" fill="#1f3d35"/>
<text x="600.0" y="324" class="ent">PRODUCTE</text>
<text x="484" y="356" class="pk">id<tspan class="tag"> (PK)</tspan></text>
<text x="484" y="378" class="at">nom<tspan class="tag"></tspan></text>
<text x="484" y="400" class="at">descripcio<tspan class="tag"></tspan></text>
<text x="484" y="422" class="at">preu<tspan class="tag"></tspan></text>
<text x="484" y="444" class="at">imatge<tspan class="tag"></tspan></text>
<text x="484" y="466" class="at">id_categoria<tspan class="tag"> (FK)</tspan></text>
<text x="484" y="488" class="at">id_origen<tspan class="tag"> (FK)</tspan></text>
<rect x="900" y="300" width="260" height="110" rx="6" fill="white" stroke="#1f3d35" stroke-width="2"/>
<rect x="900" y="300" width="260" height="36" rx="6" fill="#1f3d35"/>
<text x="1030.0" y="324" class="ent">MATERIAL</text>
<text x="914" y="356" class="pk">id<tspan class="tag"> (PK)</tspan></text>
<text x="914" y="378" class="at">nom<tspan class="tag"></tspan></text>
<text x="914" y="400" class="at">tipus<tspan class="tag"></tspan></text>
<rect x="40" y="660" width="260" height="132" rx="6" fill="white" stroke="#1f3d35" stroke-width="2"/>
<rect x="40" y="660" width="260" height="36" rx="6" fill="#1f3d35"/>
<text x="170.0" y="684" class="ent">COMANDA</text>
<text x="54" y="716" class="pk">id<tspan class="tag"> (PK)</tspan></text>
<text x="54" y="738" class="at">data<tspan class="tag"></tspan></text>
<text x="54" y="760" class="at">total<tspan class="tag"></tspan></text>
<text x="54" y="782" class="at">id_usuari<tspan class="tag"> (FK)</tspan></text>
<rect x="470" y="660" width="260" height="132" rx="6" fill="white" stroke="#b5475b" stroke-width="2"/>
<rect x="470" y="660" width="260" height="36" rx="6" fill="#b5475b"/>
<text x="600.0" y="684" class="ent">VARIANT</text>
<text x="484" y="716" class="pk">id<tspan class="tag"> (PK)</tspan></text>
<text x="484" y="738" class="at">talla<tspan class="tag"></tspan></text>
<text x="484" y="760" class="at">estoc<tspan class="tag"></tspan></text>
<text x="484" y="782" class="at">id_producte<tspan class="tag"> (FK)</tspan></text>
<rect x="40" y="940" width="260" height="220" rx="6" fill="white" stroke="#1f3d35" stroke-width="2"/>
<rect x="40" y="940" width="260" height="36" rx="6" fill="#1f3d35"/>
<text x="170.0" y="964" class="ent">USUARI</text>
<text x="54" y="996" class="pk">id<tspan class="tag"> (PK)</tspan></text>
<text x="54" y="1018" class="at">nom<tspan class="tag"></tspan></text>
<text x="54" y="1040" class="at">email<tspan class="tag"> (UNIQUE)</tspan></text>
<text x="54" y="1062" class="at">password<tspan class="tag"></tspan></text>
<text x="54" y="1084" class="at">adreca<tspan class="tag"></tspan></text>
<text x="54" y="1106" class="at">poblacio<tspan class="tag"></tspan></text>
<text x="54" y="1128" class="at">codi_postal<tspan class="tag"></tspan></text>
<text x="54" y="1150" class="at">imatge_perfil<tspan class="tag"></tspan></text>
<rect x="900" y="660" width="260" height="190" rx="6" fill="#f6efe3" stroke="#c9a227"/>
<text x="916" y="688" class="ent2">Llegenda</text>
<text x="916" y="712" class="at">Rectangle = entitat</text>
<text x="916" y="736" class="at">Rombe = relació</text>
<text x="916" y="760" class="at">(PK) clau primària</text>
<text x="916" y="784" class="at">(FK) clau forana</text>
<text x="916" y="808" class="at">1 / N / M = cardinalitat</text>
<text x="916" y="832" class="at">Vermell = nou (talles)</text>
</svg>